<?xml version="1.0" encoding="utf-8"?>
<!-- Generator: Adobe Illustrator 21.0.0, SVG Export Plug-In . SVG Version: 6.00 Build 0)  -->
<svg version="1.1" id="圖層_1" xmlns="http://www.w3.org/2000/svg" xmlns:xlink="http://www.w3.org/1999/xlink" x="0px" y="0px"
	 viewBox="0 0 26 26" style="enable-background:new 0 0 26 26;" xml:space="preserve">
<path d="M14.1,22c-3.8,0.2-5.6-0.7-7.2-2.2C5,18,5.8,16,7.3,16c1.5-0.1,2.4,1.7,3.2,2.2c0.8,0.5,3.8,1.6,5.4-0.2
	c1.7-2-1.1-3.1-3.3-3.4c-3-0.5-6.8-2.1-6.5-5.4c0.3-3.3,2.7-5,5.3-5.2c3.3-0.3,5.4,0.5,7.1,2c1.9,1.7,0.9,3.6-0.3,3.7
	c-1.2,0.1-2.6-2.8-5.3-2.8c-2.8,0-4.7,3-1.2,3.8c3.5,0.9,7.2,1.2,8.5,4.4C21.3,18.4,17.9,21.8,14.1,22z M24.8,14.7
	c0.1-0.5,0.1-1.1,0.1-1.6c0-6.7-5.3-12-11.9-12c-0.6,0-1.3,0-1.9,0.2C9.9,0.4,8.6,0,7.1,0C3.2,0,0,3.2,0,7.2c0,1.5,0.4,2.8,1.1,3.9
	C1,11.8,1,12.4,1,13.1c0,6.7,5.3,12.1,11.9,12.1c0.7,0,1.5-0.1,2.2-0.2c1.1,0.7,2.4,1.1,3.8,1.1c3.9,0,7.1-3.2,7.1-7.2
	C26,17.3,25.5,15.9,24.8,14.7z"/>
</svg>
