<?xml version="1.0" encoding="utf-8"?>
<!-- Generator: Adobe Illustrator 21.0.0, SVG Export Plug-In . SVG Version: 6.00 Build 0)  -->
<svg version="1.1" id="圖層_1" xmlns="http://www.w3.org/2000/svg" xmlns:xlink="http://www.w3.org/1999/xlink" x="0px" y="0px"
	 viewBox="0 0 30 30" style="enable-background:new 0 0 30 30;" xml:space="preserve">
<path d="M15,0C10.9,0,7.1,1.7,4.4,4.4C1.7,7.1,0,10.9,0,15s1.7,7.9,4.4,10.6C7.1,28.3,10.9,30,15,30s7.9-1.7,10.6-4.4
	C28.3,22.9,30,19.1,30,15s-1.7-7.9-4.4-10.6C22.9,1.7,19.1,0,15,0z M24,6c2.3,2.3,3.7,5.5,3.7,9s-1.4,6.7-3.7,9s-5.5,3.7-9,3.7
	S8.3,26.3,6,24s-3.7-5.5-3.7-9S3.7,8.3,6,6s5.5-3.7,9-3.7S21.7,3.7,24,6z"/>
<g>
	<path d="M8.6,23c0,0.4-0.3,0.7-0.7,0.7c-0.4,0-0.7-0.3-0.7-0.7v-2.9c0-1,0.4-1.9,1.1-2.5l0,0c0.6-0.6,1.5-1,2.5-1h8.3
		c1,0,1.9,0.4,2.5,1.1l0,0c0.6,0.6,1,1.5,1,2.5V23c0,0.4-0.3,0.7-0.7,0.7c-0.4,0-0.7-0.3-0.7-0.7v-2.9c0-0.6-0.2-1.2-0.6-1.6l0,0
		c-0.4-0.4-1-0.7-1.6-0.7h-8.3c-0.6,0-1.1,0.3-1.6,0.6l0,0c-0.4,0.4-0.7,1-0.7,1.6V23z"/>
	<path d="M9.2,23.4c0,0.3-0.3,0.6-0.6,0.6S8,23.8,8,23.4V21c0-0.8,0.4-2.6,0.9-3.1l0,0c0.6-0.5,1.4-0.9,2.3-0.9h7.5
		c0.9,0,1.7,0.3,2.3,0.9l0,0c0.6,0.5,0.9,2.3,0.9,3.1v2.4c0,0.3-0.3,0.6-0.6,0.6s-0.6-0.3-0.6-0.6V21c0-0.5-0.2-1-0.6-1.3l0,0
		c-0.4-0.3-0.9-0.6-1.4-0.6h-7.5c-0.6,0-1.1,0.2-1.4,0.5l0,0C9.4,20,9.2,20.5,9.2,21V23.4z"/>
</g>
<path d="M15,6.3c-1.3,0-2.4,0.5-3.3,1.4c-0.8,0.8-1.4,2-1.4,3.3s0.5,2.4,1.4,3.3c0.8,0.8,2,1.4,3.3,1.4s2.4-0.5,3.3-1.4
	c0.8-0.9,1.4-2,1.4-3.3s-0.5-2.4-1.4-3.3C17.4,6.8,16.3,6.3,15,6.3z M17,9c0.5,0.5,0.8,1.2,0.8,2s-0.3,1.5-0.8,2
	c-0.5,0.5-1.2,0.8-2,0.8s-1.5-0.3-2-0.8c-0.5-0.5-0.8-1.2-0.8-2s0.3-1.5,0.8-2c0.5-0.5,1.2-0.8,2-0.8S16.5,8.5,17,9z"/>
</svg>
