<?xml version="1.0" encoding="utf-8"?>
<!-- Generator: Adobe Illustrator 21.0.0, SVG Export Plug-In . SVG Version: 6.00 Build 0)  -->
<svg version="1.1" id="圖層_1" xmlns="http://www.w3.org/2000/svg" xmlns:xlink="http://www.w3.org/1999/xlink" x="0px" y="0px"
	 viewBox="0 0 500 498.2" style="enable-background:new 0 0 500 498.2;" xml:space="preserve">
<style type="text/css">
	.st0{fill:#0866FF;}
	.st1{fill:none;}
</style>
<path class="st0" d="M250,0C111.9,0,0,111.9,0,250c0,117.2,80.7,215.6,189.6,242.6V326.4H138V250l0,0l0,0h51.6v-32.9
	c0-85.1,38.5-124.5,122-124.5c8.9,0,21.5,1,32.7,2.4c8.8,1.1,16.7,2.5,21.6,3.8V168c-3.3-0.3-7.9-0.6-13.5-0.7
	c-4.5-0.1-9.7-0.2-15.4-0.2c-14.9,0-26.5,2.1-35.2,6.6c-6.3,3.3-11,7.8-14.5,13.8c-4.9,8.6-7.2,20.3-7.2,35.4v27h81.7l0,0l0,0
	l-8.3,45.4l-5.7,31l0,0l0,0h-67.6v171.8C404.1,483.2,500,377.8,500,250C500,111.9,388.1,0,250,0z"/>
<rect x="-100" y="-100" class="st1" width="700" height="700"/>
</svg>
