<?xml version="1.0" encoding="utf-8"?>
<!-- Generator: Adobe Illustrator 21.0.0, SVG Export Plug-In . SVG Version: 6.00 Build 0)  -->
<svg version="1.1" id="圖層_1" xmlns="http://www.w3.org/2000/svg" xmlns:xlink="http://www.w3.org/1999/xlink" x="0px" y="0px"
	 viewBox="0 0 246 60" style="enable-background:new 0 0 246 60;" xml:space="preserve">
<style type="text/css">
	.st0{fill:#D0A986;}
	.st1{fill-rule:evenodd;clip-rule:evenodd;}
	.st2{fill-rule:evenodd;clip-rule:evenodd;fill:#D0A986;}
</style>
<polygon class="st0" points="0.6,29.9 21.5,59.8 81.6,59.8 102.6,29.9 69.6,50.8 51.6,30 33.4,50.7 "/>
<path class="st1" d="M1.2,30.5l20.3,29.2l60,0L102,30.5L69.5,51l-0.1-0.1L51.6,30.2L33.5,50.9L1.2,30.5z M21.4,60L21.4,60L0,29.4
	l33.4,21.1l18.2-20.7l18,20.8l33.6-21.2L81.7,60h-0.1L21.4,60z"/>
<polygon class="st0" points="51.7,0.4 33.4,39.6 51.6,18.3 69.6,39.5 "/>
<path class="st1" d="M51.6,0.8L34.1,38.6L51.6,18l17.4,20.5L51.6,0.8z M32.8,40.7L51.7,0l18.5,40.5l-18.6-22L32.8,40.7z"/>
<path class="st2" d="M239.9,58.3v-0.4c1.1-0.1,1.2-0.2,1.2-1.2v-7.5c0-1-0.1-1-1.1-1.2v-0.4c0.9-0.1,1.9-0.3,2.4-0.5v2.2v7.4
	c0,1,0.1,1.1,1.2,1.2v0.4H239.9z M235.2,54.5c-0.4,0.2-1.2,0.5-1.6,0.7c-0.6,0.3-1,0.6-1,1.2c0,0.8,0.7,1.2,1.2,1.2
	c0.4,0,1-0.3,1.4-0.6V54.5z M236.4,58.5c-0.3,0-0.6-0.1-0.8-0.3c-0.2-0.2-0.3-0.4-0.4-0.7c-0.7,0.4-1.5,1-2,1c-1.2,0-2-0.9-2-1.9
	c0-0.8,0.4-1.3,1.4-1.6c1-0.3,2.3-0.7,2.6-1v-0.3c0-1.1-0.6-1.8-1.5-1.8c-0.4,0-0.6,0.2-0.8,0.4c-0.2,0.2-0.3,0.6-0.5,1
	c-0.1,0.3-0.2,0.4-0.5,0.4c-0.3,0-0.7-0.3-0.7-0.7c0-0.2,0.2-0.4,0.6-0.6c0.5-0.3,1.4-0.9,2.4-1.1c0.5,0,1,0.1,1.4,0.4
	c0.6,0.5,0.8,1,0.8,1.8v3c0,0.7,0.3,0.9,0.6,0.9c0.2,0,0.4-0.1,0.6-0.2l0.2,0.4L236.4,58.5z M227.7,58.3c-0.3,0.2-0.6,0.2-0.7,0.2
	c-1.1,0-1.6-0.6-1.6-1.9v-4.6h-1.1l-0.1-0.2l0.4-0.5h0.8v-1.3c0.3-0.3,0.8-0.7,1.1-1l0.3,0c0,0.7-0.1,1.6-0.1,2.3h1.9
	c0.1,0.2,0.1,0.5-0.1,0.7h-1.8v4c0,1.3,0.5,1.5,1,1.5c0.4,0,0.8-0.1,1-0.3l0.1,0.4L227.7,58.3z M218.8,51.8c-0.8,0-1.5,0.7-1.7,2
	c0.9,0,1.8,0,2.8,0c0.3,0,0.4-0.1,0.4-0.3C220.3,52.6,219.7,51.8,218.8,51.8z M221.7,57c-1.1,1.3-2.2,1.5-2.8,1.5
	c-2,0-3.3-1.6-3.3-3.4c0-1.1,0.4-2.1,1.1-2.8c0.7-0.7,1.6-1.1,2.5-1.1c1.4,0,2.5,1.2,2.5,2.4c0,0.3-0.1,0.5-0.3,0.5
	c-0.3,0.1-2.4,0.2-4.4,0.3c-0.1,2.1,1.3,3,2.5,3c0.7,0,1.3-0.3,1.9-0.8L221.7,57z M208.9,58.3v-0.4c1.4-0.1,1.4-0.2,1.4-1.9l0-6.4
	c-1.4,2.9-3.6,7.4-4.1,8.8h-0.4c-0.6-1.4-2.4-5.8-3.7-8.6c-0.3,5.5-0.3,6.8-0.3,7.1c0,0.9,0.4,1,1.6,1.1v0.4h-3.9v-0.4
	c1-0.1,1.4-0.3,1.5-1.1c0.1-0.7,0.1-1.3,0.5-7c0.1-0.8-0.1-1.1-1.6-1.2v-0.4h2.9l3.7,8l3.9-8h2.9v0.4c-1.4,0.2-1.6,0.3-1.6,1.4
	l0.1,6.1c0.1,1.7,0.1,1.8,1.6,1.9v0.4H208.9z M189.6,49.7c-0.5,0-0.9-0.4-0.9-0.8c0-0.5,0.4-0.9,0.9-0.9c0.5,0,0.8,0.4,0.8,0.9
	C190.4,49.3,190.1,49.7,189.6,49.7z M187.9,58.3v-0.4c1-0.1,1.2-0.2,1.2-1.3v-3.2c0-1-0.1-1-1.1-1.2v-0.4c0.9-0.1,1.6-0.3,2.4-0.6v2
	v3.5c0,1.1,0.1,1.1,1.2,1.3v0.4H187.9z M182.2,51.8c-0.8,0-1.5,0.7-1.7,2c0.9,0,1.9,0,2.8,0c0.3,0,0.4-0.1,0.4-0.3
	C183.7,52.6,183.1,51.8,182.2,51.8z M185.1,57c-1.1,1.3-2.2,1.5-2.8,1.5c-2,0-3.3-1.6-3.3-3.4c0-1.1,0.4-2.1,1.1-2.8
	c0.7-0.7,1.6-1.1,2.5-1.1c1.4,0,2.5,1.2,2.5,2.4c0,0.3-0.1,0.5-0.3,0.5c-0.3,0.1-2.4,0.2-4.4,0.3c-0.1,2.1,1.3,3,2.5,3
	c0.7,0,1.3-0.3,1.9-0.8L185.1,57z M172.3,58.3v-0.4c1.3-0.1,1.4-0.2,1.4-1.9l0-6.4c-1.3,2.9-3.5,7.4-4.1,8.8h-0.4
	c-0.6-1.4-2.4-5.8-3.7-8.6c-0.3,5.5-0.3,6.8-0.3,7.1c0,0.9,0.4,1,1.6,1.1v0.4h-3.9v-0.4c1-0.1,1.4-0.3,1.5-1.1
	c0.1-0.7,0.1-1.3,0.5-7c0.1-0.8-0.1-1.1-1.5-1.2v-0.4h2.9l3.7,8l3.9-8h2.9v0.4c-1.4,0.2-1.6,0.3-1.6,1.4l0.1,6.1
	c0.1,1.7,0.1,1.8,1.6,1.9v0.4H172.3z M151.4,58.3v-0.4c1-0.1,1.1-0.2,1.1-1.3V54c0-1.1-0.4-1.8-1.5-1.8c-0.7,0-1.3,0.4-1.8,0.8v3.7
	c0,1.1,0.1,1.1,1.1,1.2v0.4h-3.6v-0.4c1.1-0.1,1.2-0.2,1.2-1.2v-3.3c0-1-0.1-1.1-1-1.2v-0.4c0.8-0.1,1.6-0.3,2.3-0.6v1.2
	c0.3-0.2,0.7-0.5,1.1-0.7c0.5-0.3,0.9-0.5,1.4-0.5c1.3,0,2.1,0.9,2.1,2.4v3c0,1.1,0.1,1.1,1.1,1.2v0.4H151.4z M141.7,54.5
	c-0.4,0.2-1.2,0.5-1.5,0.7c-0.6,0.3-1,0.6-1,1.2c0,0.8,0.7,1.2,1.2,1.2c0.4,0,1-0.3,1.4-0.6V54.5z M142.9,58.5
	c-0.3,0-0.6-0.1-0.8-0.3c-0.2-0.2-0.3-0.4-0.4-0.7c-0.7,0.4-1.5,1-2,1c-1.2,0-2-0.9-2-1.9c0-0.8,0.4-1.3,1.4-1.6
	c1-0.3,2.3-0.7,2.6-1v-0.3c0-1.1-0.6-1.8-1.5-1.8c-0.4,0-0.6,0.2-0.8,0.4c-0.2,0.2-0.3,0.6-0.4,1c-0.1,0.3-0.2,0.4-0.5,0.4
	c-0.3,0-0.7-0.3-0.7-0.7c0-0.2,0.2-0.4,0.5-0.6c0.5-0.3,1.4-0.9,2.4-1.1c0.5,0,1,0.1,1.4,0.4c0.6,0.5,0.8,1,0.8,1.8v3
	c0,0.7,0.3,0.9,0.6,0.9c0.2,0,0.4-0.1,0.6-0.2l0.2,0.4L142.9,58.5z M135.1,58c-0.8,0.1-1.7,0.3-2.5,0.5v-1.2
	c-0.9,0.7-1.6,1.2-2.5,1.2c-1.1,0-2.1-0.6-2.1-2.4v-3.1c0-0.9-0.1-0.9-0.5-1L127,52v-0.4c0.7,0,1.8-0.2,2.4-0.3
	c-0.1,0.5-0.1,1.3-0.1,2.3v2.1c0,1.4,0.8,1.8,1.5,1.8c0.6,0,1.2-0.3,1.8-0.8v-3.7c0-0.9-0.2-1-0.8-1l-0.5-0.1v-0.4
	c1.1,0,2.2-0.2,2.6-0.3v5.3c0,0.8,0.1,0.9,0.8,0.9l0.5,0V58z M124.5,54c-1,0.1-1.1,0.2-1.1,1.1v1.3c0,0.6,0,1.1,0.1,1.5
	c-1,0.2-2.4,0.6-3.8,0.6c-3.8,0-6.1-2.2-6.1-5.4c0-3.3,2.8-5.3,6.2-5.3c1.7,0,2.9,0.3,3.4,0.4c0,0.6,0.1,1.5,0.3,2.5l-0.5,0.1
	c-0.4-1.3-0.9-1.9-1.9-2.2c-0.4-0.1-1.1-0.2-1.5-0.2c-2.5,0-4.2,1.7-4.2,4.5c0,2.5,1.4,5,4.6,5c0.6,0,1.1-0.1,1.4-0.3
	c0.3-0.2,0.6-0.4,0.6-1v-1.3c0-1.2-0.1-1.3-1.7-1.4v-0.5h4.3V54z"/>
<path class="st2" d="M132.5,23.2l-1.2,1.2c-0.8-1.5-2-3.2-3.8-5l1.3-1.1C130.3,20,131.6,21.7,132.5,23.2z M139.9,16.4h-4.5v10.6
	c0,0.7-0.2,1.3-0.7,1.7c-0.5,0.4-1.4,0.6-2.7,0.6c-0.5,0-1.1,0-1.6-0.1l-0.5-1.6c0.8,0.1,1.5,0.1,2.3,0.1c0.7,0,1.1-0.1,1.3-0.2
	c0.2-0.2,0.3-0.4,0.3-0.7V16.4h-6.9v-1.6h6.9v-3.6h1.6v3.6h4.5V16.4z M125.8,13.6h-8.7v-1.6h8.7V13.6z M139,12.4h-1.7V8.1h-21.5v4.6
	h-1.6V6.5H139V12.4z M139.8,27.4c0,3.8-1.1,5.8-3.3,5.8h-11.4c-0.9,0-1.6-0.2-2.1-0.7c-0.5-0.5-0.7-1-0.7-1.7V19.8h-3.3
	c-0.1,6.3-1.7,10.9-4.8,13.7l-1.3-1c1.2-1.1,2.2-2.3,2.8-3.7c0.7-1.3,1.1-2.7,1.3-4c0.2-1.4,0.3-3,0.3-5h-3.8v-1.7h13.1v1.7h-2.7
	v10.9c0,0.2,0.1,0.4,0.3,0.6c0.2,0.2,0.5,0.3,0.7,0.3h11.4c0.7,0,1.2-0.4,1.5-1.3c0.3-0.8,0.4-2,0.3-3.5L139.8,27.4z"/>
<path class="st2" d="M169,6.4c-0.9,0.9-2,1.8-3.4,2.5l-1.5-1c1.2-0.7,2.4-1.5,3.4-2.5L169,6.4z M175.1,32.4l-1,1.4
	c-3.2-2.1-7-4-11.2-5.6l0.9-1.4C167.5,28.1,171.3,30,175.1,32.4z M158.8,8l-1.4,1c-0.7-0.8-1.8-1.7-3.2-2.5l1.5-1
	C156.9,6.2,157.9,7,158.8,8z M175.3,20h-27.1v-1.6H161v-3h-10.1v-1.5H161V11h-11.3V9.4h24.3V11h-11.4v2.9h10.1v1.5h-10.1v3h12.8V20z
	 M174.5,24.9H162c-0.6,1.9-1.8,3.5-3.5,4.8c-1.7,1.3-4.9,2.6-9.4,3.8l-0.9-1.5c3.3-0.8,5.9-1.8,8-2.9c2.1-1.1,3.4-2.5,4.1-4.3h-11.1
	v-1.5h11.5c0.2-0.6,0.3-1.4,0.3-2.4l1.6,0.1c0,1.1-0.1,1.9-0.2,2.4h12.1V24.9z"/>
<path class="st2" d="M206.4,24.5c-1.2,2.3-2.4,4.1-3.5,5.4l-1.5-0.9c1.1-1.1,2.3-2.9,3.5-5.3L206.4,24.5z M204.4,14.3
	c-2.5-1.5-5-3.6-7.3-6.3c-1.8,2.2-4.3,4.3-7.4,6.3H204.4z M192.7,29.1l-1.5,0.6c-0.6-1.4-1.6-3.2-3.1-5.3l1.5-0.7
	C190.9,25.5,191.9,27.3,192.7,29.1z M210.6,15.7l-1,1.5c-2-1-3.7-1.9-5-2.7V16h-6.9v4.5h11.1v1.6h-11.1v8.9h11.8v1.6h-24.8v-1.6
	h11.4v-8.9h-10.8v-1.6h10.8V16h-6.6v-1.7c-1.9,1.2-3.6,2.1-5.1,2.7l-1.1-1.5c5.8-2.3,10.3-5.7,13.4-10l1.7,0.6l-0.4,0.6
	C201.4,10.6,205.5,13.6,210.6,15.7z"/>
<path class="st2" d="M243.2,20.2v-1.6h-4.8v1.6H243.2z M245.8,15.8l-0.4,1.2c-2.7-0.6-5.5-1-8.2-1.2l0.2-1.2
	C240.8,14.9,243.6,15.3,245.8,15.8z M245.4,13.2c-2.7,0.4-5.3,0.7-8,0.8l-0.5-1.2c2.7-0.1,5.4-0.4,8-0.8L245.4,13.2z M237.7,29.1
	H234v1.6l3.3-0.4l-0.5-0.7L237.7,29.1z M238.9,28v-1.4H234V28H238.9z M235.3,16.4h-1.5v-4.4h1.5V16.4z M236.9,20.2v-1.6h-4.8v1.6
	H236.9z M232.5,28v-1.4h-4.8V28H232.5z M232.5,25.5v-1.3H228c-0.8,0.7-1.3,1.1-1.5,1.3H232.5z M230.9,20.2v-1.6h-4.6v1.6H230.9z
	 M232,12.7l-0.3,1.3c-2.5-0.5-5-0.8-7.6-0.9l0.4-1.3C226.3,11.9,228.8,12.2,232,12.7z M232.1,15.7c-2,0.4-4.6,0.8-7.8,1.1l-0.4-1.2
	c2.5-0.3,5.2-0.7,7.9-1.2L232.1,15.7z M244.8,22.9c0,1.7-0.1,3.5-0.2,5.4c-0.1,1.9-0.2,3.1-0.3,3.5c0,0.5-0.3,0.8-0.6,1.2
	c-0.3,0.3-0.8,0.5-1.3,0.5h-1.8l-0.5-1.4h2.2c0.2,0,0.3-0.1,0.4-0.3c0.1-0.2,0.2-1.1,0.3-2.7c0.1-1.6,0.2-3.2,0.2-4.8H234v1.3h6.3
	v3.7h-2.2c0.5,0.7,1.1,1.6,1.7,2.7l-1.1,0.7c-0.1-0.2-0.3-0.6-0.5-1c-4.6,0.6-9.1,1.1-13.6,1.4l-0.5-1.2c1.7-0.1,4.5-0.3,8.4-0.7
	v-1.8h-6.3v-3.6c-1.1,0.7-2.1,1.2-3,1.5l-0.7-1.2c2.7-1.1,4.8-2.6,6.3-4.5h-4v-4h19.7v4h-13.9c-0.4,0.6-0.8,1.1-1.2,1.5H244.8z
	 M242.9,9.8v-2h-20.6v2H242.9z M244.4,11.1h-22.2V23c0,3.8-0.7,7.3-2,10.5l-1.3-1c1.2-3.6,1.8-7.6,1.8-11.9V6.4h23.7V11.1z"/>
</svg>
