<?xml version="1.0" encoding="utf-8"?>
<!-- Generator: Adobe Illustrator 21.0.0, SVG Export Plug-In . SVG Version: 6.00 Build 0)  -->
<svg version="1.1" id="圖層_1" xmlns="http://www.w3.org/2000/svg" xmlns:xlink="http://www.w3.org/1999/xlink" x="0px" y="0px"
	 viewBox="0 0 246 60" style="enable-background:new 0 0 246 60;" xml:space="preserve">
<style type="text/css">
	.st0{fill:#D0A986;}
	.st1{fill-rule:evenodd;clip-rule:evenodd;}
	.st2{fill-rule:evenodd;clip-rule:evenodd;fill:#D0A986;}
</style>
<polygon class="st0" points="0.6,29.9 21.5,59.8 81.6,59.8 102.6,29.9 69.6,50.8 51.6,30 33.4,50.7 "/>
<path class="st1" d="M1.2,30.5l20.3,29.2l60,0L102,30.5L69.5,51l-0.1-0.1L51.6,30.2L33.5,50.9L1.2,30.5z M21.4,60L21.4,60L0,29.4
	l33.4,21.1l18.2-20.7l18,20.8l33.6-21.2L81.7,60h-0.1L21.4,60z"/>
<polygon class="st0" points="51.7,0.4 33.4,39.6 51.6,18.3 69.6,39.5 "/>
<path class="st1" d="M51.6,0.8L34.1,38.6L51.6,18l17.4,20.5L51.6,0.8z M32.8,40.7L51.7,0l18.5,40.5l-18.6-22L32.8,40.7z"/>
<path class="st2" d="M239.9,58.3v-0.4c1.1-0.1,1.2-0.2,1.2-1.2v-7.5c0-1-0.1-1-1.1-1.2v-0.4c0.9-0.1,1.9-0.3,2.4-0.5v2.2v7.4
	c0,1,0.1,1.1,1.2,1.2v0.4H239.9z M235.2,54.5c-0.4,0.2-1.2,0.5-1.6,0.7c-0.6,0.3-1,0.6-1,1.2c0,0.8,0.7,1.2,1.2,1.2
	c0.4,0,1-0.3,1.4-0.6V54.5z M236.4,58.5c-0.3,0-0.6-0.1-0.8-0.3c-0.2-0.2-0.3-0.4-0.4-0.7c-0.7,0.4-1.5,1-2,1c-1.2,0-2-0.9-2-1.9
	c0-0.8,0.4-1.3,1.4-1.6c1-0.3,2.3-0.7,2.6-1v-0.3c0-1.1-0.6-1.8-1.5-1.8c-0.4,0-0.6,0.2-0.8,0.4c-0.2,0.2-0.3,0.6-0.5,1
	c-0.1,0.3-0.2,0.4-0.5,0.4c-0.3,0-0.7-0.3-0.7-0.7c0-0.2,0.2-0.4,0.6-0.6c0.5-0.3,1.4-0.9,2.4-1.1c0.5,0,1,0.1,1.4,0.4
	c0.6,0.5,0.8,1,0.8,1.8v3c0,0.7,0.3,0.9,0.6,0.9c0.2,0,0.4-0.1,0.6-0.2l0.2,0.4L236.4,58.5z M227.7,58.3c-0.3,0.2-0.6,0.2-0.7,0.2
	c-1.1,0-1.6-0.6-1.6-1.9v-4.6h-1.1l-0.1-0.2l0.4-0.5h0.8v-1.3c0.3-0.3,0.8-0.7,1.1-1l0.3,0c0,0.7-0.1,1.6-0.1,2.3h1.9
	c0.1,0.2,0.1,0.5-0.1,0.7h-1.8v4c0,1.3,0.5,1.5,1,1.5c0.4,0,0.8-0.1,1-0.3l0.1,0.4L227.7,58.3z M218.8,51.8c-0.8,0-1.5,0.7-1.7,2
	c0.9,0,1.8,0,2.8,0c0.3,0,0.4-0.1,0.4-0.3C220.3,52.6,219.7,51.8,218.8,51.8z M221.7,57c-1.1,1.3-2.2,1.5-2.8,1.5
	c-2,0-3.3-1.6-3.3-3.4c0-1.1,0.4-2.1,1.1-2.8c0.7-0.7,1.6-1.1,2.5-1.1c1.4,0,2.5,1.2,2.5,2.4c0,0.3-0.1,0.5-0.3,0.5
	c-0.3,0.1-2.4,0.2-4.4,0.3c-0.1,2.1,1.3,3,2.5,3c0.7,0,1.3-0.3,1.9-0.8L221.7,57z M208.9,58.3v-0.4c1.4-0.1,1.4-0.2,1.4-1.9l0-6.4
	c-1.4,2.9-3.6,7.4-4.1,8.8h-0.4c-0.6-1.4-2.4-5.8-3.7-8.6c-0.3,5.5-0.3,6.8-0.3,7.1c0,0.9,0.4,1,1.6,1.1v0.4h-3.9v-0.4
	c1-0.1,1.4-0.3,1.5-1.1c0.1-0.7,0.1-1.3,0.5-7c0.1-0.8-0.1-1.1-1.6-1.2v-0.4h2.9l3.7,8l3.9-8h2.9v0.4c-1.4,0.2-1.6,0.3-1.6,1.4
	l0.1,6.1c0.1,1.7,0.1,1.8,1.6,1.9v0.4H208.9z M189.6,49.7c-0.5,0-0.9-0.4-0.9-0.8c0-0.5,0.4-0.9,0.9-0.9c0.5,0,0.8,0.4,0.8,0.9
	C190.4,49.3,190.1,49.7,189.6,49.7z M187.9,58.3v-0.4c1-0.1,1.2-0.2,1.2-1.3v-3.2c0-1-0.1-1-1.1-1.2v-0.4c0.9-0.1,1.6-0.3,2.4-0.6v2
	v3.5c0,1.1,0.1,1.1,1.2,1.3v0.4H187.9z M182.2,51.8c-0.8,0-1.5,0.7-1.7,2c0.9,0,1.9,0,2.8,0c0.3,0,0.4-0.1,0.4-0.3
	C183.7,52.6,183.1,51.8,182.2,51.8z M185.1,57c-1.1,1.3-2.2,1.5-2.8,1.5c-2,0-3.3-1.6-3.3-3.4c0-1.1,0.4-2.1,1.1-2.8
	c0.7-0.7,1.6-1.1,2.5-1.1c1.4,0,2.5,1.2,2.5,2.4c0,0.3-0.1,0.5-0.3,0.5c-0.3,0.1-2.4,0.2-4.4,0.3c-0.1,2.1,1.3,3,2.5,3
	c0.7,0,1.3-0.3,1.9-0.8L185.1,57z M172.3,58.3v-0.4c1.3-0.1,1.4-0.2,1.4-1.9l0-6.4c-1.3,2.9-3.5,7.4-4.1,8.8h-0.4
	c-0.6-1.4-2.4-5.8-3.7-8.6c-0.3,5.5-0.3,6.8-0.3,7.1c0,0.9,0.4,1,1.6,1.1v0.4h-3.9v-0.4c1-0.1,1.4-0.3,1.5-1.1
	c0.1-0.7,0.1-1.3,0.5-7c0.1-0.8-0.1-1.1-1.5-1.2v-0.4h2.9l3.7,8l3.9-8h2.9v0.4c-1.4,0.2-1.6,0.3-1.6,1.4l0.1,6.1
	c0.1,1.7,0.1,1.8,1.6,1.9v0.4H172.3z M151.4,58.3v-0.4c1-0.1,1.1-0.2,1.1-1.3V54c0-1.1-0.4-1.8-1.5-1.8c-0.7,0-1.3,0.4-1.8,0.8v3.7
	c0,1.1,0.1,1.1,1.1,1.2v0.4h-3.6v-0.4c1.1-0.1,1.2-0.2,1.2-1.2v-3.3c0-1-0.1-1.1-1-1.2v-0.4c0.8-0.1,1.6-0.3,2.3-0.6v1.2
	c0.3-0.2,0.7-0.5,1.1-0.7c0.5-0.3,0.9-0.5,1.4-0.5c1.3,0,2.1,0.9,2.1,2.4v3c0,1.1,0.1,1.1,1.1,1.2v0.4H151.4z M141.7,54.5
	c-0.4,0.2-1.2,0.5-1.5,0.7c-0.6,0.3-1,0.6-1,1.2c0,0.8,0.7,1.2,1.2,1.2c0.4,0,1-0.3,1.4-0.6V54.5z M142.9,58.5
	c-0.3,0-0.6-0.1-0.8-0.3c-0.2-0.2-0.3-0.4-0.4-0.7c-0.7,0.4-1.5,1-2,1c-1.2,0-2-0.9-2-1.9c0-0.8,0.4-1.3,1.4-1.6
	c1-0.3,2.3-0.7,2.6-1v-0.3c0-1.1-0.6-1.8-1.5-1.8c-0.4,0-0.6,0.2-0.8,0.4c-0.2,0.2-0.3,0.6-0.4,1c-0.1,0.3-0.2,0.4-0.5,0.4
	c-0.3,0-0.7-0.3-0.7-0.7c0-0.2,0.2-0.4,0.5-0.6c0.5-0.3,1.4-0.9,2.4-1.1c0.5,0,1,0.1,1.4,0.4c0.6,0.5,0.8,1,0.8,1.8v3
	c0,0.7,0.3,0.9,0.6,0.9c0.2,0,0.4-0.1,0.6-0.2l0.2,0.4L142.9,58.5z M135.1,58c-0.8,0.1-1.7,0.3-2.5,0.5v-1.2
	c-0.9,0.7-1.6,1.2-2.5,1.2c-1.1,0-2.1-0.6-2.1-2.4v-3.1c0-0.9-0.1-0.9-0.5-1L127,52v-0.4c0.7,0,1.8-0.2,2.4-0.3
	c-0.1,0.5-0.1,1.3-0.1,2.3v2.1c0,1.4,0.8,1.8,1.5,1.8c0.6,0,1.2-0.3,1.8-0.8v-3.7c0-0.9-0.2-1-0.8-1l-0.5-0.1v-0.4
	c1.1,0,2.2-0.2,2.6-0.3v5.3c0,0.8,0.1,0.9,0.8,0.9l0.5,0V58z M124.5,54c-1,0.1-1.1,0.2-1.1,1.1v1.3c0,0.6,0,1.1,0.1,1.5
	c-1,0.2-2.4,0.6-3.8,0.6c-3.8,0-6.1-2.2-6.1-5.4c0-3.3,2.8-5.3,6.2-5.3c1.7,0,2.9,0.3,3.4,0.4c0,0.6,0.1,1.5,0.3,2.5l-0.5,0.1
	c-0.4-1.3-0.9-1.9-1.9-2.2c-0.4-0.1-1.1-0.2-1.5-0.2c-2.5,0-4.2,1.7-4.2,4.5c0,2.5,1.4,5,4.6,5c0.6,0,1.1-0.1,1.4-0.3
	c0.3-0.2,0.6-0.4,0.6-1v-1.3c0-1.2-0.1-1.3-1.7-1.4v-0.5h4.3V54z"/>
<path class="st1" d="M119.9,48c-3,0-6,1.8-6,5.2c0,3.2,2.3,5.3,5.9,5.3c1.2,0,2.4-0.3,3.3-0.5l0.3-0.1c-0.1-0.4-0.1-0.9-0.1-1.4
	v-1.3c0-1,0.1-1.1,1.1-1.3v-0.2h-4v0.2c1.5,0.1,1.7,0.3,1.7,1.5v1.3c0,0.7-0.3,0.9-0.6,1.1c-0.4,0.2-0.9,0.3-1.5,0.3
	c-3.5,0-4.7-2.8-4.7-5.1c0-2.9,1.7-4.7,4.3-4.7c0.5,0,1.2,0.1,1.6,0.2c1,0.3,1.6,0.9,2,2.2l0.3,0c-0.1-0.9-0.2-1.8-0.2-2.3l-0.3,0
	C122.3,48.2,121.2,48,119.9,48z M119.8,58.7c-3.8,0-6.2-2.2-6.2-5.5c0-3.6,3.2-5.4,6.3-5.4c1.4,0,2.4,0.2,3.1,0.3l0.4,0.1l0.1,0v0.1
	c0,0.6,0.1,1.5,0.3,2.5l0,0.1L123,51l0-0.1c-0.4-1.3-0.8-1.8-1.8-2.1c-0.4-0.1-1.1-0.2-1.5-0.2c-2.5,0-4.1,1.7-4.1,4.4
	c0,2.3,1.2,4.9,4.5,4.9c0.5,0,1-0.1,1.3-0.3c0.3-0.2,0.5-0.3,0.5-0.9v-1.3c0-1.1,0-1.2-1.6-1.3h-0.1v-0.7h4.5v0.7l-0.1,0
	c-1,0.1-1,0.2-1,1v1.3c0,0.5,0,1,0.1,1.5l0,0.1l-0.1,0l-0.4,0.1C122.2,58.4,121,58.7,119.8,58.7z"/>
<path class="st1" d="M127.1,51.9l0.4,0.1c0.5,0.1,0.6,0.3,0.6,1.1v3.1c0,1.4,0.7,2.2,1.9,2.2c0.9,0,1.6-0.5,2.5-1.2l0.2-0.2v1.3
	c0.8-0.2,1.6-0.4,2.3-0.5v-0.2l-0.3,0c-0.7,0-0.9-0.2-0.9-1v-5.1c-0.4,0.1-1.4,0.2-2.4,0.3v0.2l0.4,0c0.7,0.1,0.9,0.3,0.9,1.2v3.7
	l0,0c-0.6,0.5-1.2,0.8-1.9,0.8c-0.5,0-1.6-0.2-1.6-1.9v-2.1c0-0.9,0-1.6,0-2.2c-0.5,0.1-1.4,0.2-2.1,0.3V51.9z M132.5,58.7v-1.1
	c-0.8,0.6-1.5,1.1-2.4,1.1c-1.4,0-2.2-0.9-2.2-2.5v-3.1c0-0.8-0.1-0.8-0.5-0.9l-0.6-0.1v-0.6h0.1c0.7,0,1.8-0.2,2.3-0.3l0.2,0l0,0.2
	c0,0.5,0,1.3,0,2.3v2.1c0,1.4,0.8,1.7,1.4,1.7c0.6,0,1.2-0.2,1.7-0.7v-3.6c0-0.8-0.2-0.9-0.7-0.9l-0.6-0.1v-0.6h0.1
	c1.2-0.1,2.4-0.3,2.6-0.3l0.1,0v5.4c0,0.8,0.1,0.8,0.6,0.8l0.6,0v0.7l-0.1,0c-0.7,0.1-1.6,0.3-2.5,0.6L132.5,58.7z"/>
<path class="st1" d="M141.6,54.7c-0.3,0.1-0.8,0.3-1.4,0.6c-0.7,0.3-0.9,0.6-0.9,1c0,0.8,0.6,1.1,1.1,1.1c0.4,0,0.9-0.2,1.2-0.5
	V54.7z M140.3,57.7c-0.6,0-1.3-0.5-1.3-1.3c0-0.7,0.5-1,1.1-1.3c0.8-0.3,1.3-0.5,1.5-0.7l0.2-0.1V57l0,0
	C141.4,57.4,140.8,57.7,140.3,57.7z M140.2,51.8c1,0,1.6,0.7,1.6,1.9V54l-0.1,0c-0.4,0.3-1.4,0.6-2.6,1c-0.9,0.3-1.3,0.8-1.3,1.5
	c0,1,0.8,1.8,1.9,1.8c0.4,0,1.1-0.4,1.6-0.8l0.4-0.3l0.1,0.2c0.1,0.3,0.2,0.5,0.4,0.6c0.1,0.1,0.4,0.3,0.7,0.3l1.3-0.7l-0.1-0.2
	c-0.1,0.1-0.3,0.1-0.5,0.1c-0.2,0-0.7-0.1-0.7-1.1v-3c0-0.8-0.2-1.3-0.8-1.7c-0.3-0.3-0.8-0.4-1.3-0.4c-0.9,0.2-1.9,0.8-2.3,1.1
	c-0.3,0.2-0.5,0.4-0.5,0.5c0,0.3,0.4,0.6,0.6,0.6c0.2,0,0.3-0.1,0.4-0.3c0.1-0.4,0.3-0.8,0.5-1.1C139.6,51.9,139.9,51.8,140.2,51.8z
	 M142.9,58.7L142.9,58.7c-0.3,0-0.7-0.1-0.9-0.3c-0.2-0.2-0.3-0.4-0.4-0.6l-0.1,0.1c-0.6,0.4-1.3,0.9-1.8,0.9
	c-1.2,0-2.1-0.9-2.1-2.1c0-0.8,0.5-1.4,1.4-1.7c0.9-0.3,2.1-0.7,2.5-1v-0.3c0-1-0.5-1.6-1.3-1.6c-0.3,0-0.5,0.1-0.7,0.3
	c-0.2,0.2-0.3,0.6-0.4,1c-0.1,0.3-0.3,0.5-0.6,0.5c-0.4,0-0.8-0.4-0.8-0.8c0-0.3,0.2-0.5,0.6-0.7c0.4-0.3,1.4-0.9,2.4-1.1h0
	c0.6,0,1.1,0.2,1.5,0.4c0.6,0.5,0.9,1.1,0.9,1.9v3c0,0.4,0.1,0.8,0.4,0.8c0.2,0,0.4-0.1,0.5-0.2l0.1-0.1l0.3,0.7L142.9,58.7z"/>
<path class="st1" d="M151.5,58.2h3.2V58c-0.9-0.1-1.1-0.2-1.1-1.3v-3c0-1.5-0.8-2.3-2-2.3c-0.4,0-0.8,0.1-1.3,0.5
	c-0.4,0.3-0.8,0.5-1.1,0.7l-0.2,0.1v-1.3c-0.6,0.2-1.3,0.4-2.1,0.5v0.2c0.9,0.2,1,0.3,1,1.3v3.3c0,1.1-0.2,1.2-1.2,1.3v0.2h3.3V58
	c-0.9-0.1-1.1-0.2-1.1-1.3v-3.8l0,0c0.6-0.6,1.3-0.8,1.9-0.8c0.7,0,1.6,0.3,1.6,2v2.6c0,1.1-0.1,1.3-1.1,1.4V58.2z M154.9,58.5h-3.7
	v-0.7l0.1,0c0.9-0.1,0.9-0.2,0.9-1.2V54c0-1.2-0.4-1.7-1.4-1.7c-0.7,0-1.3,0.4-1.7,0.8v3.6c0,1,0,1,1,1.1l0.1,0v0.7h-3.8v-0.7l0.1,0
	c1.1-0.1,1.1-0.1,1.1-1.1v-3.3c0-0.9-0.1-0.9-0.9-1.1l-0.1,0v-0.6l0.1,0c0.9-0.1,1.7-0.4,2.3-0.6l0.2-0.1v1.2l0.9-0.6
	c0.4-0.2,0.9-0.5,1.4-0.5c1.4,0,2.3,1,2.3,2.6v3c0,1,0,1,0.9,1.1l0.1,0V58.5z"/>
<path class="st1" d="M172.4,58.2h4.2V58c-1.4-0.1-1.5-0.3-1.6-2l-0.1-6c0-1.2,0.3-1.4,1.6-1.5v-0.2h-2.7l-4,8.2l-3.7-8.2h-2.7v0.2
	c1.3,0.1,1.6,0.4,1.6,1.3l-0.3,4.2c-0.1,1.9-0.2,2.3-0.2,2.8c-0.1,0.9-0.6,1.1-1.5,1.2v0.2h3.7V58c-1-0.1-1.5-0.2-1.6-1.2
	c0-0.5,0-2,0.3-7.1l0-0.5l0.2,0.5c1.2,2.6,3,7,3.7,8.6h0.3c0.4-1,1.5-3.4,2.6-5.6l1.5-3.1l0.2-0.5l0,7c0,1.7,0,1.9-1.4,2V58.2z
	 M176.8,58.5h-4.7v-0.7l0.1,0c1.3-0.1,1.3-0.1,1.3-1.8l0-5.9l-1.2,2.6c-1.1,2.3-2.3,4.8-2.7,5.7l0,0.1H169l0-0.1
	c-0.6-1.4-2.3-5.5-3.5-8.1c-0.3,4.8-0.3,6.2-0.3,6.5c0,0.8,0.3,0.9,1.4,1l0.1,0v0.7h-4.2v-0.7l0.1,0c0.9-0.1,1.3-0.3,1.4-1
	c0.1-0.5,0.1-0.9,0.2-2.8l0.3-4.2c0.1-0.7,0-1-1.4-1.1l-0.1,0V48h3.1l0,0.1l3.6,7.8l3.9-7.8h3.1v0.7l-0.1,0
	c-1.4,0.2-1.5,0.3-1.5,1.3l0.1,6.1c0.1,1.6,0.1,1.6,1.5,1.8l0.1,0V58.5z"/>
<path class="st1" d="M182.2,52c-0.7,0-1.4,0.7-1.6,1.7c0.9,0,1.8,0,2.7,0c0.3,0,0.3-0.1,0.3-0.2c0-0.4-0.1-0.8-0.4-1.1
	C182.9,52.1,182.6,52,182.2,52z M180.5,53.9h-0.1l0-0.1c0.2-1.3,1-2.1,1.9-2.1c0.4,0,0.8,0.2,1.1,0.5c0.3,0.3,0.5,0.8,0.5,1.3
	c0,0.4-0.3,0.4-0.5,0.4C182.3,53.9,181.4,53.9,180.5,53.9z M182.6,51.4c-0.8,0-1.7,0.4-2.4,1.1c-0.7,0.7-1.1,1.6-1.1,2.7
	c0,1.6,1.1,3.3,3.1,3.3c0.2,0,1.4-0.1,2.6-1.4l-0.1-0.2c-0.6,0.5-1.2,0.8-1.9,0.8c-0.7,0-1.3-0.3-1.8-0.8c-0.6-0.6-0.8-1.4-0.8-2.4
	v-0.1l0.1,0c2-0.1,4.1-0.2,4.4-0.3c0.2,0,0.2-0.1,0.2-0.4C185,52.4,183.9,51.4,182.6,51.4z M182.3,58.7c-2.2,0-3.4-1.8-3.4-3.5
	c0-1.1,0.4-2.1,1.1-2.8c0.7-0.8,1.6-1.2,2.6-1.2c1.4,0,2.7,1.2,2.7,2.6c0,0.3-0.1,0.5-0.4,0.6c-0.4,0.1-2.4,0.2-4.3,0.3
	c0,0.9,0.3,1.6,0.7,2.1c0.4,0.4,1,0.7,1.6,0.7c0.6,0,1.2-0.3,1.8-0.8l0.1-0.1l0.4,0.5l-0.1,0.1C183.9,58.6,182.6,58.7,182.3,58.7z"
	/>
<path class="st1" d="M189.6,48.1c-0.4,0-0.8,0.3-0.8,0.8c0,0.4,0.3,0.7,0.8,0.7c0.4,0,0.7-0.3,0.7-0.7
	C190.3,48.4,190,48.1,189.6,48.1z M189.6,49.8c-0.5,0-1-0.4-1-0.9c0-0.6,0.4-1,1-1c0.5,0,1,0.4,1,1
	C190.6,49.3,190.1,49.8,189.6,49.8z M188,58.2h3.4V58c-1-0.1-1.2-0.2-1.2-1.4v-5.3c-0.6,0.2-1.3,0.4-2.1,0.6v0.2
	c0.9,0.2,1,0.3,1,1.3v3.2c0,1.1-0.2,1.3-1.2,1.4V58.2z M191.6,58.5h-3.9v-0.7l0.1,0c1-0.1,1-0.1,1-1.1v-3.2c0-0.9,0-0.9-0.9-1.1
	l-0.1,0v-0.6l0.1,0c0.9-0.1,1.6-0.3,2.3-0.6l0.2-0.1v5.6c0,1,0,1,1.1,1.1l0.1,0V58.5z"/>
<path class="st1" d="M209,58.2h4.2V58c-1.4-0.1-1.5-0.3-1.6-2l-0.1-6c0-1.2,0.3-1.4,1.6-1.5v-0.2h-2.7l-4,8.2l-3.7-8.2H200v0.2
	c1.3,0.1,1.6,0.4,1.6,1.3l-0.3,4.2c-0.1,1.9-0.2,2.3-0.2,2.8c-0.1,0.9-0.6,1.1-1.5,1.2v0.2h3.7V58c-1-0.1-1.5-0.2-1.6-1.2
	c0-0.5,0-2,0.3-7.1l0-0.5l0.2,0.5c1.1,2.6,3,7,3.7,8.6h0.3c0.4-1,1.5-3.4,2.6-5.7l1.4-3.1l0.2-0.5l0,7c0,1.7,0,1.9-1.4,2V58.2z
	 M213.4,58.5h-4.7v-0.7l0.1,0c1.3-0.1,1.3-0.1,1.3-1.8l0-5.9l-1.2,2.6c-1.1,2.3-2.3,4.8-2.7,5.7l0,0.1h-0.6l0-0.1
	c-0.6-1.4-2.3-5.5-3.5-8.1c-0.2,4.8-0.3,6.2-0.3,6.5c0,0.8,0.3,0.9,1.4,1l0.1,0v0.7h-4.2v-0.7l0.1,0c0.9-0.1,1.3-0.3,1.4-1
	c0.1-0.5,0.1-0.9,0.2-2.8l0.3-4.2c0.1-0.7,0-1-1.4-1.1l-0.1,0V48h3.1l0,0.1l3.6,7.8l3.8-7.8h3.1v0.7l-0.1,0
	c-1.4,0.2-1.5,0.3-1.5,1.3l0.1,6.1c0.1,1.6,0.1,1.6,1.5,1.8l0.1,0V58.5z"/>
<path class="st1" d="M218.8,52c-0.7,0-1.4,0.7-1.6,1.7c0.9,0,1.8,0,2.7,0c0.3,0,0.3-0.1,0.3-0.2c0-0.4-0.1-0.8-0.4-1.1
	C219.5,52.1,219.2,52,218.8,52z M217.1,53.9h-0.2l0-0.1c0.2-1.3,0.9-2.1,1.9-2.1c0.4,0,0.8,0.2,1.1,0.5c0.3,0.3,0.5,0.8,0.5,1.3
	c0,0.4-0.3,0.4-0.5,0.4C218.9,53.9,218,53.9,217.1,53.9z M219.2,51.4c-0.8,0-1.7,0.4-2.4,1.1c-0.7,0.7-1.1,1.6-1.1,2.7
	c0,1.6,1.1,3.3,3.1,3.3c0.2,0,1.4-0.1,2.6-1.4l-0.1-0.2c-0.6,0.5-1.2,0.8-1.9,0.8c-0.7,0-1.3-0.3-1.8-0.8c-0.5-0.6-0.8-1.4-0.8-2.4
	v-0.1l0.1,0c2-0.1,4.1-0.2,4.4-0.3c0.2,0,0.2-0.1,0.2-0.4C221.6,52.4,220.5,51.4,219.2,51.4z M218.9,58.7c-2.2,0-3.4-1.8-3.4-3.5
	c0-1.1,0.4-2.1,1.1-2.8c0.7-0.8,1.6-1.2,2.6-1.2c1.4,0,2.7,1.2,2.7,2.6c0,0.3-0.1,0.5-0.4,0.6c-0.4,0.1-2.4,0.2-4.3,0.3
	c0,0.9,0.3,1.6,0.7,2.1c0.4,0.4,1,0.7,1.6,0.7c0.6,0,1.3-0.3,1.8-0.8l0.1-0.1l0.4,0.5l-0.1,0.1C220.5,58.6,219.2,58.7,218.9,58.7z"
	/>
<path class="st1" d="M224.3,52h1.2v4.7c0,1.2,0.5,1.8,1.5,1.8c0.1,0,0.4,0,0.7-0.2l1-0.5l-0.1-0.2c-0.2,0.1-0.6,0.2-0.9,0.2
	c-0.5,0-1.1-0.3-1.1-1.6V52h1.9c0.1-0.1,0.1-0.1,0.1-0.2c0-0.1,0-0.1,0-0.2h-2v-0.1c0-0.8,0-1.6,0-2.2l-0.1,0
	c-0.1,0.2-0.3,0.3-0.5,0.5c-0.2,0.2-0.4,0.3-0.5,0.5v1.4h-0.8L224.3,52L224.3,52z M227,58.7c-0.8,0-1.8-0.3-1.8-2v-4.5h-1.1
	l-0.1-0.3l0.5-0.5h0.7V50l0,0c0.2-0.2,0.4-0.4,0.6-0.5c0.2-0.2,0.4-0.4,0.5-0.5l0.1,0l0.4,0.1l0,0.1c0,0.6,0,1.4-0.1,2.2h1.8l0,0
	c0.1,0.1,0.1,0.2,0.1,0.4c0,0.2-0.1,0.3-0.2,0.4l0,0h-1.7v3.9c0,0.9,0.3,1.4,0.8,1.4c0.4,0,0.8-0.2,1-0.2l0.1-0.1l0.2,0.6l-1.2,0.6
	C227.5,58.6,227.2,58.7,227,58.7z"/>
<path class="st1" d="M235.1,54.7c-0.3,0.1-0.8,0.3-1.4,0.6c-0.7,0.3-0.9,0.6-0.9,1c0,0.8,0.6,1.1,1.1,1.1c0.4,0,0.9-0.2,1.2-0.5
	V54.7z M233.8,57.7c-0.6,0-1.3-0.5-1.3-1.3c0-0.7,0.5-1,1.1-1.3c0.8-0.3,1.3-0.5,1.5-0.7l0.2-0.1V57l0,0
	C234.9,57.4,234.3,57.7,233.8,57.7z M233.7,51.8c1,0,1.6,0.7,1.6,1.9V54l-0.1,0c-0.4,0.3-1.6,0.7-2.7,1c-0.9,0.3-1.3,0.8-1.3,1.5
	c0,1,0.9,1.8,1.9,1.8c0.4,0,1.1-0.4,1.6-0.8l0.4-0.3l0.1,0.2c0.1,0.3,0.2,0.5,0.4,0.6c0.1,0.1,0.4,0.3,0.7,0.3l1.3-0.7l-0.1-0.2
	c-0.2,0.1-0.3,0.1-0.5,0.1c-0.2,0-0.7-0.1-0.7-1.1v-3c0-0.8-0.2-1.3-0.8-1.7c-0.3-0.3-0.8-0.4-1.3-0.4c-0.9,0.2-1.9,0.8-2.3,1.1
	c-0.3,0.2-0.5,0.4-0.5,0.5c0,0.3,0.4,0.6,0.6,0.6c0.2,0,0.3-0.1,0.4-0.3c0.1-0.4,0.3-0.8,0.5-1.1C233.1,51.9,233.4,51.8,233.7,51.8z
	 M236.4,58.7L236.4,58.7c-0.3,0-0.7-0.1-0.9-0.3c-0.2-0.2-0.3-0.4-0.4-0.6l-0.1,0.1c-0.6,0.4-1.3,0.9-1.8,0.9
	c-1.2,0-2.2-0.9-2.2-2.1c0-0.8,0.5-1.4,1.4-1.7c0.9-0.3,2.1-0.7,2.5-1v-0.3c0-1-0.5-1.6-1.3-1.6c-0.3,0-0.5,0.1-0.7,0.3
	c-0.2,0.2-0.3,0.6-0.4,1c-0.1,0.3-0.3,0.5-0.6,0.5c-0.4,0-0.9-0.4-0.9-0.8c0-0.3,0.2-0.5,0.6-0.7c0.4-0.3,1.4-0.9,2.4-1.1h0
	c0.6,0,1.1,0.2,1.5,0.4c0.6,0.5,0.9,1.1,0.9,1.9v3c0,0.4,0.1,0.8,0.5,0.8c0.1,0,0.3,0,0.5-0.2l0.1-0.1l0.3,0.7L236.4,58.7z"/>
<path class="st1" d="M240,58.2h3.4V58c-1.1-0.1-1.2-0.3-1.2-1.3v-9.5c-0.6,0.2-1.4,0.4-2.2,0.5v0.2c1,0.1,1.1,0.3,1.1,1.3v7.5
	c0,1.1-0.2,1.2-1.2,1.3V58.2z M243.7,58.5h-3.9v-0.7l0.1,0c1-0.1,1.1-0.1,1.1-1.1v-7.5c0-0.9,0-0.9-1-1.1l-0.1,0v-0.6l0.1,0
	c0.9-0.1,1.9-0.3,2.4-0.5l0.2-0.1v9.8c0,1,0,1,1.1,1.1l0.1,0V58.5z"/>
<path class="st2" d="M132.5,23.2l-1.2,1.2c-0.8-1.5-2-3.2-3.8-5l1.3-1.1C130.3,20,131.6,21.7,132.5,23.2z M139.9,16.4h-4.5v10.6
	c0,0.7-0.2,1.3-0.7,1.7c-0.5,0.4-1.4,0.6-2.7,0.6c-0.5,0-1.1,0-1.6-0.1l-0.5-1.6c0.8,0.1,1.5,0.1,2.3,0.1c0.7,0,1.1-0.1,1.3-0.2
	c0.2-0.2,0.3-0.4,0.3-0.7V16.4h-6.9v-1.6h6.9v-3.6h1.6v3.6h4.5V16.4z M125.8,13.6h-8.7v-1.6h8.7V13.6z M139,12.4h-1.7V8.1h-21.5v4.6
	h-1.6V6.5H139V12.4z M139.8,27.4c0,3.8-1.1,5.8-3.3,5.8h-11.4c-0.9,0-1.6-0.2-2.1-0.7c-0.5-0.5-0.7-1-0.7-1.7V19.8h-3.3
	c-0.1,6.3-1.7,10.9-4.8,13.7l-1.3-1c1.2-1.1,2.2-2.3,2.8-3.7c0.7-1.3,1.1-2.7,1.3-4c0.2-1.4,0.3-3,0.3-5h-3.8v-1.7h13.1v1.7h-2.7
	v10.9c0,0.2,0.1,0.4,0.3,0.6c0.2,0.2,0.5,0.3,0.7,0.3h11.4c0.7,0,1.2-0.4,1.5-1.3c0.3-0.8,0.4-2,0.3-3.5L139.8,27.4z"/>
<path class="st2" d="M169,6.4c-0.9,0.9-2,1.8-3.4,2.5l-1.5-1c1.2-0.7,2.4-1.5,3.4-2.5L169,6.4z M175.1,32.4l-1,1.4
	c-3.2-2.1-7-4-11.2-5.6l0.9-1.4C167.5,28.1,171.3,30,175.1,32.4z M158.8,8l-1.4,1c-0.7-0.8-1.8-1.7-3.2-2.5l1.5-1
	C156.9,6.2,157.9,7,158.8,8z M175.3,20h-27.1v-1.6H161v-3h-10.1v-1.5H161V11h-11.3V9.4h24.3V11h-11.4v2.9h10.1v1.5h-10.1v3h12.8V20z
	 M174.5,24.9H162c-0.6,1.9-1.8,3.5-3.5,4.8c-1.7,1.3-4.9,2.6-9.4,3.8l-0.9-1.5c3.3-0.8,5.9-1.8,8-2.9c2.1-1.1,3.4-2.5,4.1-4.3h-11.1
	v-1.5h11.5c0.2-0.6,0.3-1.4,0.3-2.4l1.6,0.1c0,1.1-0.1,1.9-0.2,2.4h12.1V24.9z"/>
<path class="st2" d="M206.4,24.5c-1.2,2.3-2.4,4.1-3.5,5.4l-1.5-0.9c1.1-1.1,2.3-2.9,3.5-5.3L206.4,24.5z M204.4,14.3
	c-2.5-1.5-5-3.6-7.3-6.3c-1.8,2.2-4.3,4.3-7.4,6.3H204.4z M192.7,29.1l-1.5,0.6c-0.6-1.4-1.6-3.2-3.1-5.3l1.5-0.7
	C190.9,25.5,191.9,27.3,192.7,29.1z M210.6,15.7l-1,1.5c-2-1-3.7-1.9-5-2.7V16h-6.9v4.5h11.1v1.6h-11.1v8.9h11.8v1.6h-24.8v-1.6
	h11.4v-8.9h-10.8v-1.6h10.8V16h-6.6v-1.7c-1.9,1.2-3.6,2.1-5.1,2.7l-1.1-1.5c5.8-2.3,10.3-5.7,13.4-10l1.7,0.6l-0.4,0.6
	C201.4,10.6,205.5,13.6,210.6,15.7z"/>
<path class="st2" d="M243.2,20.2v-1.6h-4.8v1.6H243.2z M245.8,15.8l-0.4,1.2c-2.7-0.6-5.5-1-8.2-1.2l0.2-1.2
	C240.8,14.9,243.6,15.3,245.8,15.8z M245.4,13.2c-2.7,0.4-5.3,0.7-8,0.8l-0.5-1.2c2.7-0.1,5.4-0.4,8-0.8L245.4,13.2z M237.7,29.1
	H234v1.6l3.3-0.4l-0.5-0.7L237.7,29.1z M238.9,28v-1.4H234V28H238.9z M235.3,16.4h-1.5v-4.4h1.5V16.4z M236.9,20.2v-1.6h-4.8v1.6
	H236.9z M232.5,28v-1.4h-4.8V28H232.5z M232.5,25.5v-1.3H228c-0.8,0.7-1.3,1.1-1.5,1.3H232.5z M230.9,20.2v-1.6h-4.6v1.6H230.9z
	 M232,12.7l-0.3,1.3c-2.5-0.5-5-0.8-7.6-0.9l0.4-1.3C226.3,11.9,228.8,12.2,232,12.7z M232.1,15.7c-2,0.4-4.6,0.8-7.8,1.1l-0.4-1.2
	c2.5-0.3,5.2-0.7,7.9-1.2L232.1,15.7z M244.8,22.9c0,1.7-0.1,3.5-0.2,5.4c-0.1,1.9-0.2,3.1-0.3,3.5c0,0.5-0.3,0.8-0.6,1.2
	c-0.3,0.3-0.8,0.5-1.3,0.5h-1.8l-0.5-1.4h2.2c0.2,0,0.3-0.1,0.4-0.3c0.1-0.2,0.2-1.1,0.3-2.7c0.1-1.6,0.2-3.2,0.2-4.8H234v1.3h6.3
	v3.7h-2.2c0.5,0.7,1.1,1.6,1.7,2.7l-1.1,0.7c-0.1-0.2-0.3-0.6-0.5-1c-4.6,0.6-9.1,1.1-13.6,1.4l-0.5-1.2c1.7-0.1,4.5-0.3,8.4-0.7
	v-1.8h-6.3v-3.6c-1.1,0.7-2.1,1.2-3,1.5l-0.7-1.2c2.7-1.1,4.8-2.6,6.3-4.5h-4v-4h19.7v4h-13.9c-0.4,0.6-0.8,1.1-1.2,1.5H244.8z
	 M242.9,9.8v-2h-20.6v2H242.9z M244.4,11.1h-22.2V23c0,3.8-0.7,7.3-2,10.5l-1.3-1c1.2-3.6,1.8-7.6,1.8-11.9V6.4h23.7V11.1z"/>
<path class="st1" d="M114.4,12.6h1.4V8h21.7v4.3h1.4V6.6h-24.5V12.6z M116,12.8h-1.9V6.3h25v6.2h-1.9V8.2H116V12.8z M117.2,13.4h8.4
	v-1.4h-8.4V13.4z M125.9,13.7H117v-1.9h8.9V13.7z M127.7,19.4c1.7,1.8,2.9,3.4,3.6,4.8l1-1c-0.9-1.5-2.1-3-3.6-4.7L127.7,19.4z
	 M131.3,24.6l-0.1-0.2c-0.8-1.5-2-3.2-3.8-5l-0.1-0.1l1.4-1.3l0.1,0.1c1.6,1.8,2.8,3.4,3.8,4.9l0,0.1L131.3,24.6z M130.5,29
	c0.5,0,1,0.1,1.5,0.1c1.3,0,2.2-0.2,2.7-0.6c0.4-0.4,0.6-0.9,0.6-1.6V16.2h4.5v-1.4h-4.5v-3.6h-1.3v3.6H127v1.4h6.9v10.4
	c0,0.4-0.1,0.6-0.3,0.8c-0.2,0.2-0.6,0.3-1.3,0.3c-0.7,0-1.4,0-2.2-0.1L130.5,29z M132,29.3c-0.5,0-1.1,0-1.6-0.1l-0.1,0l-0.5-1.9
	l0.2,0c0.8,0.1,1.5,0.1,2.3,0.1c0.8,0,1.1-0.1,1.2-0.2c0.1-0.1,0.2-0.3,0.2-0.6V16.5h-6.9v-1.9h6.9V11h1.8v3.6h4.5v1.9h-4.5v10.4
	c0,0.8-0.3,1.3-0.7,1.8C134.3,29.1,133.4,29.3,132,29.3z M113.1,32.5l1.1,0.9c3-2.8,4.6-7.4,4.7-13.6v-0.1h3.5v11
	c0,0.7,0.2,1.2,0.6,1.6c0.4,0.4,1.1,0.7,2,0.7h11.4c2.1,0,3.2-1.9,3.2-5.5l-1.4-0.5c0,1.4-0.1,2.6-0.3,3.4c-0.3,0.9-0.8,1.3-1.6,1.3
	h-11.4c-0.3,0-0.6-0.1-0.8-0.3c-0.2-0.2-0.3-0.5-0.3-0.7v-11h2.7v-1.4h-12.8v1.4h3.8v0.1c0,1.9-0.1,3.6-0.3,5
	c-0.2,1.4-0.6,2.7-1.3,4.1C115.2,30.2,114.3,31.4,113.1,32.5z M114.2,33.7l-1.5-1.2l0.1-0.1c1.2-1.1,2.1-2.3,2.8-3.6
	c0.7-1.3,1.1-2.7,1.3-4c0.2-1.3,0.3-3,0.3-4.8h-3.8V18h13.3v1.9h-2.7v10.7c0,0.2,0.1,0.4,0.3,0.6c0.2,0.2,0.4,0.3,0.6,0.3h11.4
	c0.7,0,1.1-0.4,1.4-1.2c0.3-0.8,0.4-2,0.3-3.5l0-0.2l1.9,0.6v0.1c0,3.9-1.2,5.9-3.4,5.9h-11.4c-0.9,0-1.7-0.3-2.1-0.7
	c-0.5-0.5-0.7-1.1-0.7-1.8V19.9h-3C119.1,26.1,117.4,30.8,114.2,33.7L114.2,33.7z"/>
<path class="st1" d="M164.4,8l1.3,0.8c1.3-0.7,2.3-1.5,3.2-2.4l-1.2-0.8C166.6,6.6,165.5,7.3,164.4,8z M165.6,9.1l-1.7-1.1l0.2-0.1
	c1.2-0.6,2.3-1.5,3.4-2.5l0.1-0.1l1.6,1.1l-0.1,0.1C168.2,7.4,167.1,8.3,165.6,9.1L165.6,9.1z M154.3,6.4c1.3,0.8,2.3,1.6,3,2.4
	l1.3-0.8c-0.8-0.9-1.8-1.7-3-2.4L154.3,6.4z M157.3,9.1L157.3,9.1c-0.8-0.9-1.9-1.8-3.3-2.6l-0.2-0.1l1.8-1.1l0.1,0
	c1.3,0.8,2.4,1.6,3.2,2.6l0.1,0.1L157.3,9.1z M148.4,19.9h26.8v-1.4h-12.8v-3.2h10.1V14h-10.1v-3.2h11.4V9.6h-24v1.3h11.3V14H151
	v1.3h10.1v3.2h-12.7V19.9z M175.5,20.1h-27.3v-1.9h12.7v-2.7h-10.1v-1.8h10.1v-2.7h-11.3V9.3h24.5v1.8h-11.4v2.7h10.1v1.8h-10.1v2.7
	h12.8V20.1z M148.4,32.2l0.8,1.2c4.4-1.2,7.5-2.5,9.2-3.8c1.7-1.3,2.9-2.9,3.5-4.8l0-0.1h12.5v-1.2h-12.2l0-0.1
	c0.1-0.5,0.2-1.2,0.2-2.2l-1.4-0.1c0,1-0.1,1.8-0.3,2.4l0,0.1h-11.4v1.2h11.2l-0.1,0.2c-0.7,1.8-2.1,3.2-4.2,4.4
	C154.2,30.4,151.6,31.4,148.4,32.2z M149.1,33.7L148,32l0.2,0c3.2-0.8,5.9-1.8,8-2.9c2-1.1,3.3-2.4,4-4.1h-11.1v-1.7h11.5
	c0.2-0.6,0.3-1.4,0.3-2.3v-0.1l1.9,0.1l0,0.1c0,1-0.1,1.7-0.2,2.3h12.1v1.7h-12.5c-0.6,1.9-1.8,3.5-3.5,4.8
	C156.8,31.2,153.7,32.5,149.1,33.7L149.1,33.7z M163,28.1c4.1,1.6,7.9,3.4,11,5.5l0.9-1.2c-3.7-2.3-7.5-4.2-11.1-5.5L163,28.1z
	 M174.1,33.9l-0.1-0.1c-3.2-2.1-7-4-11.2-5.6l-0.1-0.1l1-1.6l0.1,0c3.8,1.4,7.6,3.3,11.4,5.6l0.1,0.1L174.1,33.9z"/>
<path class="st1" d="M188.3,24.5c1.4,2,2.4,3.7,3,5.1l1.3-0.5c-0.7-1.7-1.7-3.4-3-5.1L188.3,24.5z M191.1,29.9l0-0.1
	c-0.6-1.4-1.6-3.2-3.1-5.3l-0.1-0.1l1.7-0.8l0.1,0.1c1.3,1.8,2.4,3.6,3.1,5.4l0.1,0.1L191.1,29.9z M201.6,29l1.2,0.8
	c1.1-1.2,2.2-3,3.4-5.2l-1.2-0.7C203.9,26.1,202.7,27.8,201.6,29z M202.9,30.1l-1.7-1.1l0.1-0.1c1.1-1.1,2.3-2.9,3.5-5.2l0.1-0.1
	l1.6,0.9l-0.1,0.1C205.3,26.9,204.1,28.7,202.9,30.1L202.9,30.1z M190.1,14.2h13.8c-2.4-1.5-4.7-3.5-6.8-6
	C195.4,10.3,193,12.3,190.1,14.2z M204.8,14.4c1.3,0.8,2.9,1.7,4.9,2.6l0.9-1.3c-5.1-2.1-9.2-5.1-12.4-9L198,6.7l0.4-0.5l-1.5-0.5
	c-3.1,4.3-7.6,7.6-13.3,9.9l0.9,1.3c1.4-0.6,3.1-1.5,5-2.6l0.2-0.1v0c3.1-2,5.5-4.1,7.4-6.3l0.1-0.1l0.1,0.1
	c2.3,2.7,4.7,4.8,7.2,6.3L204.8,14.4L204.8,14.4z M184.9,32.6h24.5v-1.4h-11.7V22h11.1v-1.4h-11.1v-4.8h6.9v-1.5h-14.9v1.5h6.6v4.8
	h-10.8V22h10.8v9.2h-11.4V32.6z M209.6,32.8h-25V31H196v-8.7h-10.8v-1.9H196v-4.3h-6.6v-1.5c-1.8,1.1-3.5,2-4.9,2.6l-0.1,0l-1.2-1.7
	l0.1-0.1c5.8-2.3,10.3-5.7,13.4-10l0.1-0.1l2,0.7l-0.5,0.6c3.2,3.9,7.4,6.9,12.4,8.9l0.1,0l-1.1,1.7l-0.1-0.1
	c-1.9-0.9-3.6-1.8-4.8-2.6v1.4h-6.9v4.3H209v1.9h-11.1V31h11.8V32.8z"/>
<path class="st1" d="M222.4,9.6h20.4V7.9h-20.4V9.6z M243,9.9h-20.9V7.7H243V9.9z M237.1,12.9l0.4,1c2.6-0.1,5.2-0.4,7.7-0.8l-0.4-1
	C242.3,12.5,239.7,12.8,237.1,12.9z M237.4,14.1l-0.6-1.5h0.2c2.7-0.1,5.4-0.4,8-0.8l0.1,0l0.6,1.5l-0.2,0
	C242.8,13.7,240.1,14,237.4,14.1L237.4,14.1z M224.3,13c2.4,0.1,4.9,0.4,7.3,0.9l0.3-1c-3.1-0.5-5.5-0.9-7.2-0.9L224.3,13z
	 M231.8,14.2l-0.1,0c-2.5-0.5-5-0.8-7.5-0.9l-0.2,0l0.5-1.6l0.1,0c1.7,0.1,4.3,0.4,7.5,0.9l0.1,0L231.8,14.2z M234,16.3h1.3v-4.1
	H234V16.3z M235.5,16.6h-1.7v-4.6h1.7V16.6z M224.1,15.8l0.3,1c3-0.4,5.6-0.7,7.5-1.1l-0.3-1C229.1,15.1,226.5,15.5,224.1,15.8z
	 M224.3,17l-0.5-1.4l0.2,0c2.5-0.3,5.2-0.7,7.9-1.2l0.1,0l0.4,1.4l-0.1,0c-2,0.4-4.7,0.8-7.8,1.1L224.3,17z M237.4,15.7
	c2.7,0.2,5.4,0.6,8,1.2l0.3-1c-2.2-0.5-4.9-0.9-8.1-1.2L237.4,15.7z M245.6,17.2l-0.1,0c-2.7-0.6-5.5-1-8.2-1.2l-0.1,0l0.3-1.5
	l0.1,0c3.3,0.3,6.2,0.7,8.4,1.2l0.1,0L245.6,17.2z M226.4,20.1h4.4v-1.4h-4.4V20.1z M231,20.3h-4.9v-1.9h4.9V20.3z M232.3,20.1h4.5
	v-1.4h-4.5V20.1z M237.1,20.3h-5v-1.9h5V20.3z M238.5,20.1h4.6v-1.4h-4.6V20.1z M243.3,20.3h-5.1v-1.9h5.1V20.3z M227.8,27.9h4.5
	v-1.2h-4.5V27.9z M232.6,28.2h-5v-1.7h5V28.2z M234.2,27.9h4.6v-1.2h-4.6V27.9z M239,28.2h-5.1v-1.7h5.1V28.2z M226.8,25.4h5.6v-1.1
	h-4.3C227.5,24.8,227.1,25.1,226.8,25.4z M234.2,29.3v1.3l3-0.3l-0.4-0.7l0.5-0.3H234.2z M240.8,33.3h1.7c0.5,0,0.9-0.1,1.2-0.4
	c0.3-0.3,0.5-0.7,0.6-1.1c0.1-0.5,0.1-1.7,0.3-3.5c0.1-1.8,0.2-3.6,0.2-5.2h-15.5l0.2-0.2c0.4-0.4,0.8-0.9,1.2-1.5l0-0.1h13.8v-3.8
	H225v3.8h4.1l-0.2,0.2c-1.5,1.8-3.6,3.3-6.3,4.5l0.6,1c0.8-0.3,1.8-0.8,2.9-1.4l0.2-0.1v0.1l0,0c0.2-0.2,0.7-0.6,1.5-1.3l0,0h4.7
	v1.6h-6.3V29h6.3v2l-0.1,0c-3.7,0.4-6.5,0.6-8.3,0.7l0.4,1c4.4-0.3,8.9-0.8,13.5-1.4l0.1,0l0,0.1c0.2,0.4,0.4,0.7,0.5,0.9l0.9-0.6
	c-0.5-1.1-1.1-1.9-1.6-2.6l-0.1-0.1l-0.9,0.6l0.5,0.8l-3.6,0.4V29h6.3v-3.4h-6.3V24h9.5v0.1c0,1.6-0.1,3.2-0.2,4.8
	c-0.2,2.4-0.3,2.7-0.3,2.8c-0.1,0.3-0.4,0.4-0.5,0.4h-2L240.8,33.3z M242.5,33.5h-1.9l-0.6-1.7h2.4c0.1,0,0.2,0,0.3-0.3
	c0.1-0.1,0.2-0.7,0.3-2.7c0.1-1.5,0.2-3.1,0.2-4.6h-9v1.1h6.3v3.9h-2.1c0.5,0.7,1,1.5,1.5,2.5l0.1,0.1l-1.3,0.8l-0.1-0.1
	c-0.1-0.2-0.3-0.5-0.5-0.9c-4.5,0.6-9.1,1.1-13.5,1.4h-0.1l-0.6-1.4l0.2,0c1.7-0.1,4.5-0.3,8.3-0.7v-1.6h-6.3v-3.5
	c-1.1,0.6-2,1.1-2.9,1.4l-0.1,0l-0.8-1.4l0.1,0c2.6-1.1,4.6-2.5,6.1-4.2h-3.9v-4.3h20v4.3h-13.9c-0.3,0.5-0.6,0.9-1,1.3h15.1v0.1
	c0,1.7-0.1,3.5-0.2,5.4c-0.1,1.9-0.2,3.1-0.3,3.5c-0.1,0.5-0.3,0.9-0.6,1.2C243.5,33.4,243,33.5,242.5,33.5z M219.1,32.5l1.1,0.8
	c1.3-3.1,1.9-6.6,1.9-10.3V11h22.2V6.6h-23.4v14C220.9,24.9,220.3,28.9,219.1,32.5z M220.3,33.7l-1.5-1.2l0-0.1
	c1.2-3.6,1.8-7.6,1.8-11.9V6.3h23.9v4.9h-22.2V23c0,3.8-0.7,7.4-2,10.6L220.3,33.7z"/>
</svg>
