<?xml version="1.0" encoding="utf-8"?>
<!-- Generator: Adobe Illustrator 21.0.0, SVG Export Plug-In . SVG Version: 6.00 Build 0)  -->
<svg version="1.1" id="圖層_1" xmlns="http://www.w3.org/2000/svg" xmlns:xlink="http://www.w3.org/1999/xlink" x="0px" y="0px"
	 viewBox="0 0 22 22" style="enable-background:new 0 0 22 22;" xml:space="preserve">
<style type="text/css">
	.st0{fill-rule:evenodd;clip-rule:evenodd;fill:#D0A986;}
</style>
<path class="st0" d="M21.5,8.2l-3.3-2.8h0.2V0h-3v3l-3-2.5c-0.8-0.7-2-0.7-2.8,0L0.5,8.2C-0.1,8.6-0.2,9.4,0.3,10
	c0.3,0.3,0.6,0.5,1,0.5c0.3,0,0.6-0.1,0.9-0.3l8.9-7.4l8.7,7.4c0.5,0.5,1.4,0.4,1.9-0.1C22.2,9.5,22.1,8.6,21.5,8.2z M11.6,4.4
	c-0.4-0.3-0.9-0.3-1.3,0L3,10.5c-0.2,0.2-0.3,0.4-0.3,0.7v9.1c0,0.9,0.7,1.6,1.6,1.6h3.9l0-0.1v-4.6c0-0.6,0.5-1,1.1-1h3.5
	c0.6,0,1.1,0.5,1.1,1v4.6l0,0.1h3.9c0.9,0,1.6-0.7,1.6-1.6v-9.1c0-0.3-0.1-0.6-0.3-0.7L11.6,4.4z"/>
</svg>
