<?xml version="1.0" encoding="utf-8"?>
<!-- Generator: Adobe Illustrator 21.0.0, SVG Export Plug-In . SVG Version: 6.00 Build 0)  -->
<svg version="1.1" id="圖層_1" xmlns="http://www.w3.org/2000/svg" xmlns:xlink="http://www.w3.org/1999/xlink" x="0px" y="0px"
	 viewBox="0 0 22 22" style="enable-background:new 0 0 22 22;" xml:space="preserve">
<style type="text/css">
	.st0{fill-rule:evenodd;clip-rule:evenodd;fill:#D0A986;}
</style>
<path class="st0" d="M20.9,12.1c0.6,0,1.1-0.5,1.1-1.1s-0.5-1.1-1.1-1.1H6.6C6,9.8,5.5,10.3,5.5,11s0.5,1.1,1.1,1.1H20.9z
	 M20.9,17.5c0.6,0,1.1-0.5,1.1-1.1c0-0.6-0.5-1.1-1.1-1.1H6.6c-0.6,0-1.1,0.5-1.1,1.1c0,0.6,0.5,1.1,1.1,1.1H20.9z M20.9,6.8
	c0.6,0,1.1-0.5,1.1-1.1s-0.5-1.1-1.1-1.1H6.6C6,4.5,5.5,5,5.5,5.6S6,6.8,6.6,6.8H20.9z M2.2,12.1c0.6,0,1.1-0.5,1.1-1.1
	S2.8,9.8,2.2,9.8H1.1C0.5,9.8,0,10.3,0,11s0.5,1.1,1.1,1.1H2.2z M2.2,17.5c0.6,0,1.1-0.5,1.1-1.1c0-0.6-0.5-1.1-1.1-1.1H1.1
	c-0.6,0-1.1,0.5-1.1,1.1c0,0.6,0.5,1.1,1.1,1.1H2.2z M2.2,6.8c0.6,0,1.1-0.5,1.1-1.1S2.8,4.5,2.2,4.5H1.1C0.5,4.5,0,5,0,5.6
	s0.5,1.1,1.1,1.1H2.2z"/>
</svg>
