<?xml version="1.0" encoding="utf-8"?>
<!-- Generator: Adobe Illustrator 21.0.0, SVG Export Plug-In . SVG Version: 6.00 Build 0)  -->
<svg version="1.1" id="圖層_1" xmlns="http://www.w3.org/2000/svg" xmlns:xlink="http://www.w3.org/1999/xlink" x="0px" y="0px"
	 viewBox="0 0 22 22" style="enable-background:new 0 0 22 22;" xml:space="preserve">
<style type="text/css">
	.st0{fill-rule:evenodd;clip-rule:evenodd;fill:#D0A986;}
</style>
<path class="st0" d="M17.6,15.5l-1.2-1.1l-1.9,2.4l1.2,1.1l-0.3,0.4l3.4,3.2c0.8,0.8,2.1,0.6,2.8-0.3c0.7-0.9,0.6-2.2-0.2-3
	l-3.4-3.2L17.6,15.5z M11.3,10.4c0.4,0,0.7-0.4,0.7-0.9c0-0.5-0.3-0.9-0.7-0.9H5.7C5.3,8.6,5,9,5,9.5c0,0.5,0.3,0.9,0.7,0.9H11.3z
	 M13.4,13.8c-2.4,3-6.5,3.3-9.2,0.8c-2.7-2.5-3-6.9-0.6-9.9s6.5-3.3,9.2-0.8S15.8,10.8,13.4,13.8z M2.1,3.3C-1,7.2-0.6,13,2.9,16.3
	s9,2.8,12.1-1.1c3.1-3.9,2.8-9.7-0.8-13S5.3-0.6,2.1,3.3z"/>
</svg>
